<?xml version="1.0" encoding="UTF-8"?>
<!DOCTYPE svg PUBLIC "-//W3C//DTD SVG 1.1//EN" "http://www.w3.org/Graphics/SVG/1.1/DTD/svg11.dtd">
<!-- Creator: CorelDRAW -->
<svg xmlns="http://www.w3.org/2000/svg" xml:space="preserve" width="2048px" height="2048px" style="shape-rendering:geometricPrecision; text-rendering:geometricPrecision; image-rendering:optimizeQuality; fill-rule:evenodd; clip-rule:evenodd"
viewBox="0 0 2048 2048"
 xmlns:xlink="http://www.w3.org/1999/xlink">
 <defs>
  <style type="text/css">
   <![CDATA[
    .fil1 {fill:none}
    .fil0 {fill:#424242;fill-rule:nonzero}
   ]]>
  </style>
 </defs>
 <g id="Layer_x0020_1">
  <metadata id="CorelCorpID_0Corel-Layer"/>
  <path class="fil0" d="M512.293 542.969l0.0271654 0.244488c-0.0200788,-0.421654 -0.0330709,-0.767717 -0.0271654,-0.244488z"/>
  <path class="fil0" d="M444.128 509.944c2.31496,0 4.6937,0.0578741 7.13386,0.173622 6.56103,-36.1488 24.0921,-68.4768 49.0229,-93.4076 32.0516,-32.0504 76.3312,-51.8776 125.235,-51.8776 16.0524,0 31.6406,2.15315 46.4847,6.18662 1.62402,0.440552 3.24095,0.905906 4.85079,1.39606 10.1102,-27.6449 26.9173,-52.0737 48.463,-71.3186 31.3996,-28.0465 72.7075,-45.0969 117.868,-45.0969 30.8055,0 59.8477,7.93229 85.1965,21.874 14.9268,8.20985 28.5355,18.4973 40.4351,30.4677 15.5988,-12.789 32.8689,-23.563 51.4205,-31.9276 29.0847,-13.1126 61.2591,-20.4142 95.0304,-20.4142 49.1941,0 94.9205,15.4819 132.586,41.8642 28.0618,19.6559 51.5587,45.3615 68.589,75.2079 10.637,-5.56182 21.7713,-10.3311 33.3248,-14.2252 23.3799,-7.87914 48.2292,-12.1524 73.8627,-12.1524 57.1843,0 109.608,20.8406 150.106,55.3642 36.5327,31.1433 63.2563,73.5154 74.8808,121.821 36.9591,17.563 68.5394,44.6563 91.5674,78.1123 25.7327,37.3866 40.7977,82.5544 40.7977,131.097 0,63.9308 -25.9158,121.814 -67.8154,163.714 -41.8996,41.8996 -99.7831,67.8154 -163.714,67.8154 -6.29528,0 -13.4067,-0.368504 -21.2788,-1.0878 -1.11969,-0.102756 -2.23229,-0.212599 -3.34134,-0.329528 -19.1528,18.8362 -41.6705,34.4032 -66.6166,45.763 -29.3988,13.3878 -61.865,20.8477 -95.8442,20.8477 -28.089,0 -55.252,-5.14252 -80.582,-14.5488 -12.6591,-4.70197 -24.7902,-10.474 -36.2835,-17.2051 -16.6264,30.1984 -39.7807,56.2784 -67.5567,76.3205 -38.1402,27.5197 -84.8599,43.7363 -135.239,43.7363 -56.0516,0 -107.478,-19.9618 -147.566,-53.1709 -25.6158,-21.2221 -46.5839,-47.8878 -61.1516,-78.2375 -13.4894,12.0685 -28.3855,22.5638 -44.4071,31.2012 -32.7177,17.6398 -70.0666,27.6508 -109.652,27.6508 -61.0382,0 -116.581,-23.6776 -157.958,-62.3575 -33.6118,-31.4197 -57.8563,-72.7536 -68.0953,-119.35 -3.35551,0.210236 -6.60945,0.317717 -9.75355,0.317717 -48.9036,0 -93.182,-19.826 -125.234,-51.8776 -32.0504,-32.0516 -51.8776,-76.3312 -51.8776,-125.235 0,-48.9036 19.8248,-93.182 51.8776,-125.234 32.0516,-32.0528 76.33,-51.8776 125.234,-51.8776z"/>
  <path class="fil0" d="M633.801 1474.43c85.1079,100.95 102.905,179.258 88.4564,232.217 -12.0579,44.1981 -44.9256,71.2217 -82.4469,81.0993 -36.4677,9.60119 -77.739,2.49567 -108.045,-21.2729 -34.252,-26.8642 -54.5811,-73.3229 -38.5394,-138.465 2.44488,-9.92954 5.87126,-20.5465 10.3772,-31.8638 4.17048,-10.4728 9.21615,-21.3284 15.2114,-32.5453 7.67008,-14.3516 16.9595,-29.4366 28.0358,-45.2386 10.3051,-14.7012 22.3311,-30.215 36.2386,-46.5508l-0.115748 -0.11811c11.4555,-13.4563 31.6536,-15.078 45.1099,-3.62244 2.23465,1.90276 4.14213,4.04764 5.71772,6.36142z"/>
  <path class="fil0" d="M1018.94 1474.43c85.1056,100.949 102.901,179.255 88.4528,232.213 -12.0579,44.1981 -44.9256,71.2217 -82.4469,81.0993 -36.4677,9.60119 -77.739,2.49567 -108.045,-21.2729 -34.252,-26.8642 -54.5811,-73.3229 -38.5394,-138.465 2.44488,-9.93072 5.87126,-20.5477 10.3784,-31.865 4.16929,-10.4705 9.21615,-21.3272 15.2114,-32.5441 7.67008,-14.3516 16.9583,-29.4366 28.0358,-45.2386 10.3039,-14.6988 22.3299,-30.2126 36.2374,-46.5508l-0.116929 -0.116929c11.4555,-13.4575 31.6524,-15.0803 45.1099,-3.62481 2.23701,1.90394 4.14567,4.05 5.72245,6.36615z"/>
  <path class="fil0" d="M1404.08 1474.43c85.1056,100.949 102.901,179.255 88.4528,232.213 -12.0579,44.1981 -44.9256,71.2217 -82.4469,81.0993 -36.4677,9.60119 -77.739,2.49567 -108.045,-21.2729 -34.2508,-26.863 -54.5811,-73.3229 -38.5394,-138.465 2.44488,-9.93072 5.87126,-20.5477 10.3784,-31.865 4.16929,-10.4717 9.21615,-21.3272 15.2114,-32.5441 7.67008,-14.3516 16.9583,-29.4366 28.0358,-45.2386 10.3039,-14.6988 22.3299,-30.2126 36.2374,-46.5508l-0.116929 -0.116929c11.4555,-13.4575 31.6524,-15.0803 45.1099,-3.62481 2.23701,1.90394 4.14567,4.05 5.72245,6.36615z"/>
  <path class="fil0" d="M805.442 1163.65c85.1056,100.949 102.901,179.255 88.4528,232.213 -12.0579,44.1981 -44.9256,71.2217 -82.4469,81.0993 -36.4677,9.60119 -77.739,2.49567 -108.045,-21.2729 -34.252,-26.8642 -54.5811,-73.3229 -38.5394,-138.465 2.44488,-9.93072 5.87126,-20.5477 10.3784,-31.865 4.16929,-10.4705 9.21615,-21.3272 15.2114,-32.5441 7.67008,-14.3516 16.9583,-29.4366 28.0358,-45.2386 10.3039,-14.6988 22.3299,-30.2126 36.2374,-46.5508l-0.116929 -0.116929c11.4555,-13.4575 31.6524,-15.0803 45.1099,-3.62481 2.23701,1.90394 4.14567,4.05 5.72245,6.36615z"/>
  <path class="fil0" d="M1232.44 1159.22c85.1079,100.95 102.905,179.258 88.4564,232.217 -12.0579,44.1981 -44.9256,71.2217 -82.4469,81.0993 -36.4677,9.60119 -77.739,2.49567 -108.045,-21.2729 -34.2508,-26.863 -54.5811,-73.3229 -38.5394,-138.465 2.44488,-9.92954 5.87126,-20.5465 10.3772,-31.8638 4.17048,-10.4728 9.21615,-21.3284 15.2114,-32.5453 7.67008,-14.3504 16.9583,-29.4343 28.0347,-45.2363 10.3051,-14.7012 22.3311,-30.2162 36.2398,-46.5532l-0.115748 -0.11811c11.4555,-13.4563 31.6536,-15.078 45.1099,-3.62244 2.23465,1.90276 4.14213,4.04764 5.71772,6.36142z"/>
 </g>
 <rect class="fil1" width="2048" height="2048"/>
</svg>
